<?xml version="1.0" encoding="utf-8" standalone="no"?>
<!DOCTYPE svg PUBLIC "-//W3C//DTD SVG 1.1//EN"
  "http://www.w3.org/Graphics/SVG/1.1/DTD/svg11.dtd">
<svg xmlns:xlink="http://www.w3.org/1999/xlink" width="432pt" height="576pt" viewBox="0 0 432 576" xmlns="http://www.w3.org/2000/svg" version="1.1">
 <metadata>
  <rdf:RDF xmlns:dc="http://purl.org/dc/elements/1.1/" xmlns:cc="http://creativecommons.org/ns#" xmlns:rdf="http://www.w3.org/1999/02/22-rdf-syntax-ns#">
   <cc:Work>
    <dc:type rdf:resource="http://purl.org/dc/dcmitype/StillImage"/>
    <dc:date>2026-03-16T16:22:01.639357</dc:date>
    <dc:format>image/svg+xml</dc:format>
    <dc:creator>
     <cc:Agent>
      <dc:title>Matplotlib v3.10.8, https://matplotlib.org/</dc:title>
     </cc:Agent>
    </dc:creator>
   </cc:Work>
  </rdf:RDF>
 </metadata>
 <defs>
  <style type="text/css">*{stroke-linejoin: round; stroke-linecap: butt}</style>
 </defs>
 <g id="figure_1">
  <g id="patch_1">
   <path d="M 0 576 
L 432 576 
L 432 0 
L 0 0 
z
" style="fill: #ffffff"/>
  </g>
  <g id="axes_1">
   <g id="patch_2">
    <path d="M 137.7 458.28 
C 182.080213 458.28 224.688126 440.631225 256.069675 409.249675 
C 287.451225 377.868126 305.1 335.260213 305.1 290.88 
C 305.1 246.499787 287.451225 203.891874 256.069675 172.510325 
C 224.688126 141.128775 182.080213 123.48 137.7 123.48 
L 137.7 290.88 
C 137.7 290.88 137.7 290.88 137.7 290.88 
C 137.7 290.88 137.7 290.88 137.7 290.88 
C 137.7 290.88 137.7 290.88 137.7 290.88 
C 137.7 290.88 137.7 290.88 137.7 290.88 
z
" style="fill: #ffffff"/>
   </g>
   <g id="patch_3">
    <path d="M 137.7 290.88 
C 137.7 290.88 137.7 290.88 137.7 290.88 
C 137.7 290.88 137.7 290.88 137.7 290.88 
L 244.584141 368.535874 
C 236.435352 379.751719 226.571719 389.615352 215.355874 397.764141 
C 204.140029 405.912929 191.711126 412.245771 178.526109 416.529843 
z
" clip-path="url(#pa6dd165c97)" style="fill: #1f77b4; opacity: 0.8"/>
   </g>
   <g id="patch_4">
    <path d="M 137.7 290.88 
C 137.7 290.88 137.7 290.88 137.7 290.88 
C 137.7 290.88 137.7 290.88 137.7 290.88 
L 189.217651 290.88 
C 189.217651 296.285984 188.366738 301.658433 186.696197 306.79983 
C 185.025656 311.941226 182.556213 316.787782 179.378655 321.161315 
z
" clip-path="url(#pa6dd165c97)" style="fill: #1f77b4; opacity: 0.8"/>
   </g>
   <g id="patch_5">
    <path d="M 137.7 290.88 
C 137.7 290.88 137.7 290.88 137.7 290.88 
C 137.7 290.88 137.7 290.88 137.7 290.88 
L 157.819016 276.262679 
C 159.352879 278.37386 160.544922 280.713378 161.351322 283.19522 
C 162.157721 285.677062 162.568471 288.270437 162.568471 290.88 
z
" clip-path="url(#pa6dd165c97)" style="fill: #d62728; opacity: 0.8"/>
   </g>
   <g id="patch_6">
    <path d="M 137.7 290.88 
C 137.7 290.88 137.7 290.88 137.7 290.88 
C 137.7 290.88 137.7 290.88 137.7 290.88 
L 170.076362 191.235802 
C 180.532487 194.633203 190.38899 199.655342 199.283501 206.117583 
C 208.178012 212.579823 216.000177 220.401988 222.462417 229.296499 
z
" clip-path="url(#pa6dd165c97)" style="fill: #1f77b4; opacity: 0.8"/>
   </g>
   <g id="matplotlib.axis_1">
    <g id="xtick_1"/>
    <g id="xtick_2"/>
    <g id="xtick_3"/>
    <g id="xtick_4"/>
    <g id="xtick_5"/>
    <g id="xtick_6"/>
    <g id="xtick_7"/>
   </g>
   <g id="matplotlib.axis_2">
    <g id="ytick_1">
     <g id="line2d_1">
      <path d="M 137.7 290.88 
C 137.7 290.88 137.7 290.88 137.7 290.88 
C 137.7 290.88 137.7 290.88 137.7 290.88 
C 137.7 290.88 137.7 290.88 137.7 290.88 
C 137.7 290.88 137.7 290.88 137.7 290.88 
" clip-path="url(#pa6dd165c97)" style="fill: none; stroke: #b0b0b0; stroke-width: 0.8; stroke-linecap: square"/>
     </g>
     <g id="text_1">
      <text style="font-size: 12px; font-family: 'DejaVu Sans', 'Bitstream Vera Sans', 'Computer Modern Sans Serif', 'Lucida Grande', 'Verdana', 'Geneva', 'Lucid', 'Arial', 'Helvetica', 'Avant Garde', sans-serif; text-anchor: end" x="130.7" y="294.19125" transform="rotate(-0 130.7 294.19125)">0.0</text>
     </g>
    </g>
    <g id="ytick_2">
     <g id="line2d_2">
      <path d="M 137.7 346.68 
C 152.493404 346.68 166.696042 340.797075 177.156558 330.336558 
C 187.617075 319.876042 193.5 305.673404 193.5 290.88 
C 193.5 276.086596 187.617075 261.883958 177.156558 251.423442 
C 166.696042 240.962925 152.493404 235.08 137.7 235.08 
" clip-path="url(#pa6dd165c97)" style="fill: none; stroke: #b0b0b0; stroke-width: 0.8; stroke-linecap: square"/>
     </g>
     <g id="text_2">
      <text style="font-size: 12px; font-family: 'DejaVu Sans', 'Bitstream Vera Sans', 'Computer Modern Sans Serif', 'Lucida Grande', 'Verdana', 'Geneva', 'Lucid', 'Arial', 'Helvetica', 'Avant Garde', sans-serif; text-anchor: end" x="130.7" y="349.99125" transform="rotate(-0 130.7 349.99125)">0.1</text>
     </g>
    </g>
    <g id="ytick_3">
     <g id="line2d_3">
      <path d="M 137.7 402.48 
C 167.286809 402.48 195.692084 390.71415 216.613117 369.793117 
C 237.53415 348.872084 249.3 320.466809 249.3 290.88 
C 249.3 261.293191 237.53415 232.887916 216.613117 211.966883 
C 195.692084 191.04585 167.286809 179.28 137.7 179.28 
" clip-path="url(#pa6dd165c97)" style="fill: none; stroke: #b0b0b0; stroke-width: 0.8; stroke-linecap: square"/>
     </g>
     <g id="text_3">
      <text style="font-size: 12px; font-family: 'DejaVu Sans', 'Bitstream Vera Sans', 'Computer Modern Sans Serif', 'Lucida Grande', 'Verdana', 'Geneva', 'Lucid', 'Arial', 'Helvetica', 'Avant Garde', sans-serif; text-anchor: end" x="130.7" y="405.79125" transform="rotate(-0 130.7 405.79125)">0.2</text>
     </g>
    </g>
    <g id="ytick_4">
     <g id="line2d_4">
      <path d="M 137.7 458.28 
C 182.080213 458.28 224.688126 440.631225 256.069675 409.249675 
C 287.451225 377.868126 305.1 335.260213 305.1 290.88 
C 305.1 246.499787 287.451225 203.891874 256.069675 172.510325 
C 224.688126 141.128775 182.080213 123.48 137.7 123.48 
" clip-path="url(#pa6dd165c97)" style="fill: none; stroke: #b0b0b0; stroke-width: 0.8; stroke-linecap: square"/>
     </g>
     <g id="text_4">
      <text style="font-size: 12px; font-family: 'DejaVu Sans', 'Bitstream Vera Sans', 'Computer Modern Sans Serif', 'Lucida Grande', 'Verdana', 'Geneva', 'Lucid', 'Arial', 'Helvetica', 'Avant Garde', sans-serif; text-anchor: end" x="130.7" y="461.59125" transform="rotate(-0 130.7 461.59125)">0.3</text>
     </g>
    </g>
    <g id="text_5">
     <text style="font-size: 12px; font-family: 'DejaVu Sans', 'Bitstream Vera Sans', 'Computer Modern Sans Serif', 'Lucida Grande', 'Verdana', 'Geneva', 'Lucid', 'Arial', 'Helvetica', 'Avant Garde', sans-serif; text-anchor: middle" x="47.170625" y="290.88" transform="rotate(-90 47.170625 290.88)">Spearman's |r|</text>
    </g>
   </g>
   <g id="patch_7">
    <path d="M 137.7 458.28 
C 182.080213 458.28 224.688126 440.631225 256.069675 409.249675 
C 287.451225 377.868126 305.1 335.260213 305.1 290.88 
C 305.1 246.499787 287.451225 203.891874 256.069675 172.510325 
C 224.688126 141.128775 182.080213 123.48 137.7 123.48 
" style="fill: none; stroke: #000000; stroke-width: 0.8; stroke-linejoin: miter; stroke-linecap: square"/>
   </g>
   <g id="patch_8">
    <path d="M 137.7 290.88 
L 137.7 458.28 
" style="fill: none; stroke: #000000; stroke-width: 0.8; stroke-linejoin: miter; stroke-linecap: square"/>
   </g>
   <g id="patch_9">
    <path d="M 137.7 290.88 
L 137.7 123.48 
" style="fill: none; stroke: #000000; stroke-width: 0.8; stroke-linejoin: miter; stroke-linecap: square"/>
   </g>
  </g>
 </g>
 <defs>
  <clipPath id="pa6dd165c97">
   <path d="M 137.7 458.28 
C 182.080213 458.28 224.688126 440.631225 256.069675 409.249675 
C 287.451225 377.868126 305.1 335.260213 305.1 290.88 
C 305.1 246.499787 287.451225 203.891874 256.069675 172.510325 
C 224.688126 141.128775 182.080213 123.48 137.7 123.48 
L 137.7 290.88 
C 137.7 290.88 137.7 290.88 137.7 290.88 
C 137.7 290.88 137.7 290.88 137.7 290.88 
C 137.7 290.88 137.7 290.88 137.7 290.88 
C 137.7 290.88 137.7 290.88 137.7 290.88 
z
"/>
  </clipPath>
 </defs>
</svg>
