<?xml version="1.0" encoding="utf-8" standalone="no"?>
<!DOCTYPE svg PUBLIC "-//W3C//DTD SVG 1.1//EN"
  "http://www.w3.org/Graphics/SVG/1.1/DTD/svg11.dtd">
<svg xmlns:xlink="http://www.w3.org/1999/xlink" width="432pt" height="576pt" viewBox="0 0 432 576" xmlns="http://www.w3.org/2000/svg" version="1.1">
 <metadata>
  <rdf:RDF xmlns:dc="http://purl.org/dc/elements/1.1/" xmlns:cc="http://creativecommons.org/ns#" xmlns:rdf="http://www.w3.org/1999/02/22-rdf-syntax-ns#">
   <cc:Work>
    <dc:type rdf:resource="http://purl.org/dc/dcmitype/StillImage"/>
    <dc:date>2026-02-12T13:17:02.923210</dc:date>
    <dc:format>image/svg+xml</dc:format>
    <dc:creator>
     <cc:Agent>
      <dc:title>Matplotlib v3.10.8, https://matplotlib.org/</dc:title>
     </cc:Agent>
    </dc:creator>
   </cc:Work>
  </rdf:RDF>
 </metadata>
 <defs>
  <style type="text/css">*{stroke-linejoin: round; stroke-linecap: butt}</style>
 </defs>
 <g id="figure_1">
  <g id="patch_1">
   <path d="M 0 576 
L 432 576 
L 432 0 
L 0 0 
z
" style="fill: #ffffff"/>
  </g>
  <g id="axes_1">
   <g id="patch_2">
    <path d="M 137.7 458.28 
C 182.080213 458.28 224.688126 440.631225 256.069675 409.249675 
C 287.451225 377.868126 305.1 335.260213 305.1 290.88 
C 305.1 246.499787 287.451225 203.891874 256.069675 172.510325 
C 224.688126 141.128775 182.080213 123.48 137.7 123.48 
L 137.7 290.88 
C 137.7 290.88 137.7 290.88 137.7 290.88 
C 137.7 290.88 137.7 290.88 137.7 290.88 
C 137.7 290.88 137.7 290.88 137.7 290.88 
C 137.7 290.88 137.7 290.88 137.7 290.88 
z
" style="fill: #ffffff"/>
   </g>
   <g id="patch_3">
    <path d="M 137.7 290.88 
C 137.7 290.88 137.7 290.88 137.7 290.88 
C 137.7 290.88 137.7 290.88 137.7 290.88 
L 266.680424 384.589763 
C 256.847027 398.124273 244.944273 410.027027 231.409763 419.860424 
C 217.875253 429.693821 202.876909 437.335859 186.966138 442.505582 
z
" clip-path="url(#p88da210913)" style="fill: #1f77b4; opacity: 0.8"/>
   </g>
   <g id="patch_4">
    <path d="M 137.7 290.88 
C 137.7 290.88 137.7 290.88 137.7 290.88 
C 137.7 290.88 137.7 290.88 137.7 290.88 
L 240.795163 290.88 
C 240.795163 301.69825 239.092349 312.44939 235.749326 322.738157 
C 232.406303 333.026925 227.464546 342.725668 221.105739 351.477816 
z
" clip-path="url(#p88da210913)" style="fill: #d62728; opacity: 0.8"/>
   </g>
   <g id="patch_5">
    <path d="M 137.7 290.88 
C 137.7 290.88 137.7 290.88 137.7 290.88 
C 137.7 290.88 137.7 290.88 137.7 290.88 
L 177.108124 262.248322 
C 180.112578 266.383598 182.447494 270.966127 184.027029 275.827436 
C 185.606564 280.688744 186.411121 285.768518 186.411121 290.88 
z
" clip-path="url(#p88da210913)" style="fill: #d62728; opacity: 0.8"/>
   </g>
   <g id="patch_6">
    <path d="M 137.7 290.88 
C 137.7 290.88 137.7 290.88 137.7 290.88 
C 137.7 290.88 137.7 290.88 137.7 290.88 
L 180.953067 157.760749 
C 194.921883 162.299492 208.089637 169.008798 219.972222 177.642001 
C 231.854807 186.275204 242.304796 196.725193 250.937999 208.607778 
z
" clip-path="url(#p88da210913)" style="fill: #1f77b4; opacity: 0.8"/>
   </g>
   <g id="matplotlib.axis_1">
    <g id="xtick_1"/>
    <g id="xtick_2"/>
    <g id="xtick_3"/>
    <g id="xtick_4"/>
    <g id="xtick_5"/>
    <g id="xtick_6"/>
    <g id="xtick_7"/>
   </g>
   <g id="matplotlib.axis_2">
    <g id="ytick_1">
     <g id="line2d_1">
      <path d="M 137.7 290.88 
C 137.7 290.88 137.7 290.88 137.7 290.88 
C 137.7 290.88 137.7 290.88 137.7 290.88 
C 137.7 290.88 137.7 290.88 137.7 290.88 
C 137.7 290.88 137.7 290.88 137.7 290.88 
" clip-path="url(#p88da210913)" style="fill: none; stroke: #b0b0b0; stroke-width: 0.8; stroke-linecap: square"/>
     </g>
     <g id="text_1">
      <text style="font-size: 12px; font-family: 'DejaVu Sans', 'Bitstream Vera Sans', 'Computer Modern Sans Serif', 'Lucida Grande', 'Verdana', 'Geneva', 'Lucid', 'Arial', 'Helvetica', 'Avant Garde', sans-serif; text-anchor: end" x="130.7" y="294.19125" transform="rotate(-0 130.7 294.19125)">0.0</text>
     </g>
    </g>
    <g id="ytick_2">
     <g id="line2d_2">
      <path d="M 137.7 342.058475 
C 151.26817 342.058475 164.294502 336.662792 173.888647 327.068647 
C 183.482792 317.474502 188.878475 304.44817 188.878475 290.88 
C 188.878475 277.31183 183.482792 264.285498 173.888647 254.691353 
C 164.294502 245.097208 151.26817 239.701525 137.7 239.701525 
" clip-path="url(#p88da210913)" style="fill: none; stroke: #b0b0b0; stroke-width: 0.8; stroke-linecap: square"/>
     </g>
     <g id="text_2">
      <text style="font-size: 12px; font-family: 'DejaVu Sans', 'Bitstream Vera Sans', 'Computer Modern Sans Serif', 'Lucida Grande', 'Verdana', 'Geneva', 'Lucid', 'Arial', 'Helvetica', 'Avant Garde', sans-serif; text-anchor: end" x="130.7" y="345.369725" transform="rotate(-0 130.7 345.369725)">0.1</text>
     </g>
    </g>
    <g id="ytick_3">
     <g id="line2d_3">
      <path d="M 137.7 393.23695 
C 164.83634 393.23695 190.889004 382.445583 210.077293 363.257293 
C 229.265583 344.069004 240.05695 318.01634 240.05695 290.88 
C 240.05695 263.74366 229.265583 237.690996 210.077293 218.502707 
C 190.889004 199.314417 164.83634 188.52305 137.7 188.52305 
" clip-path="url(#p88da210913)" style="fill: none; stroke: #b0b0b0; stroke-width: 0.8; stroke-linecap: square"/>
     </g>
     <g id="text_3">
      <text style="font-size: 12px; font-family: 'DejaVu Sans', 'Bitstream Vera Sans', 'Computer Modern Sans Serif', 'Lucida Grande', 'Verdana', 'Geneva', 'Lucid', 'Arial', 'Helvetica', 'Avant Garde', sans-serif; text-anchor: end" x="130.7" y="396.5482" transform="rotate(-0 130.7 396.5482)">0.2</text>
     </g>
    </g>
    <g id="ytick_4">
     <g id="line2d_4">
      <path d="M 137.7 444.415425 
C 178.404509 444.415425 217.483506 428.228375 246.26594 399.44594 
C 275.048375 370.663506 291.235425 331.584509 291.235425 290.88 
C 291.235425 250.175491 275.048375 211.096494 246.26594 182.31406 
C 217.483506 153.531625 178.404509 137.344575 137.7 137.344575 
" clip-path="url(#p88da210913)" style="fill: none; stroke: #b0b0b0; stroke-width: 0.8; stroke-linecap: square"/>
     </g>
     <g id="text_4">
      <text style="font-size: 12px; font-family: 'DejaVu Sans', 'Bitstream Vera Sans', 'Computer Modern Sans Serif', 'Lucida Grande', 'Verdana', 'Geneva', 'Lucid', 'Arial', 'Helvetica', 'Avant Garde', sans-serif; text-anchor: end" x="130.7" y="447.726675" transform="rotate(-0 130.7 447.726675)">0.3</text>
     </g>
    </g>
    <g id="text_5">
     <text style="font-size: 12px; font-family: 'DejaVu Sans', 'Bitstream Vera Sans', 'Computer Modern Sans Serif', 'Lucida Grande', 'Verdana', 'Geneva', 'Lucid', 'Arial', 'Helvetica', 'Avant Garde', sans-serif; text-anchor: middle" x="47.170625" y="290.88" transform="rotate(-90 47.170625 290.88)">Spearman's |r|</text>
    </g>
   </g>
   <g id="patch_7">
    <path d="M 137.7 458.28 
C 182.080213 458.28 224.688126 440.631225 256.069675 409.249675 
C 287.451225 377.868126 305.1 335.260213 305.1 290.88 
C 305.1 246.499787 287.451225 203.891874 256.069675 172.510325 
C 224.688126 141.128775 182.080213 123.48 137.7 123.48 
" style="fill: none; stroke: #000000; stroke-width: 0.8; stroke-linejoin: miter; stroke-linecap: square"/>
   </g>
   <g id="patch_8">
    <path d="M 137.7 290.88 
L 137.7 458.28 
" style="fill: none; stroke: #000000; stroke-width: 0.8; stroke-linejoin: miter; stroke-linecap: square"/>
   </g>
   <g id="patch_9">
    <path d="M 137.7 290.88 
L 137.7 123.48 
" style="fill: none; stroke: #000000; stroke-width: 0.8; stroke-linejoin: miter; stroke-linecap: square"/>
   </g>
  </g>
 </g>
 <defs>
  <clipPath id="p88da210913">
   <path d="M 137.7 458.28 
C 182.080213 458.28 224.688126 440.631225 256.069675 409.249675 
C 287.451225 377.868126 305.1 335.260213 305.1 290.88 
C 305.1 246.499787 287.451225 203.891874 256.069675 172.510325 
C 224.688126 141.128775 182.080213 123.48 137.7 123.48 
L 137.7 290.88 
C 137.7 290.88 137.7 290.88 137.7 290.88 
C 137.7 290.88 137.7 290.88 137.7 290.88 
C 137.7 290.88 137.7 290.88 137.7 290.88 
C 137.7 290.88 137.7 290.88 137.7 290.88 
z
"/>
  </clipPath>
 </defs>
</svg>
